 0
SECTION
 2
ENTITIES
  0
POLYLINE
 8
Layer0
 66
     1
70
    8
 10
0.0
 20
 0.0
 30
0.0
  0
VERTEX
  8
MY3DLAYER
10
49.9
20
-46.0
30
-20.0
 70
     32
  0
VERTEX
  8
MY3DLAYER
10
-63.1
20
-46.0
30
-20.0
 70
     32
  0
VERTEX
  8
MY3DLAYER
10
-63.1
20
43.0598859703833
30
-20.0
 70
     32
  0
VERTEX
  8
MY3DLAYER
10
-64.0136833455403
20
43.0598859703833
30
-20.0
 70
     32
  0
VERTEX
  8
MY3DLAYER
10
-66.9979190519008
20
43.4527680545152
30
-20.0
 70
     32
  0
VERTEX
  8
MY3DLAYER
10
-70.6302013620305
20
44.9573086497388
30
-20.0
 70
     32
  0
VERTEX
  8
MY3DLAYER
10
-73.7493128935839
20
47.3506871064161
30
-20.0
 70
     32
  0
VERTEX
  8
MY3DLAYER
10
-76.1426913502612
20
50.4697986379694
30
-20.0
 70
     32
  0
VERTEX
  8
MY3DLAYER
10
-77.6472319454848
20
54.1020809480991
30
-20.0
 70
     32
  0
VERTEX
  8
MY3DLAYER
10
-78.160402724061
20
58.0
30
-20.0
 70
     32
  0
VERTEX
  8
MY3DLAYER
10
-77.6472319454848
20
61.8979190519008
30
-20.0
 70
     32
  0
VERTEX
  8
MY3DLAYER
10
-76.1426913502612
20
65.5302013620305
30
-20.0
 70
     32
  0
VERTEX
  8
MY3DLAYER
10
-73.7493128935839
20
68.6493128935839
30
-20.0
 70
     32
  0
VERTEX
  8
MY3DLAYER
10
-70.6302013620305
20
71.0426913502613
30
-20.0
 70
     32
  0
VERTEX
  8
MY3DLAYER
10
-66.9979190519009
20
72.5472319454848
30
-20.0
 70
     32
  0
VERTEX
  8
MY3DLAYER
10
-63.1
20
73.0604027240611
30
-20.0
 70
     32
  0
VERTEX
  8
MY3DLAYER
10
-59.2020809480991
20
72.5472319454849
30
-20.0
 70
     32
  0
VERTEX
  8
MY3DLAYER
10
-55.5697986379695
20
71.0426913502613
30
-20.0
 70
     32
  0
VERTEX
  8
MY3DLAYER
10
-52.450687106416
20
68.6493128935839
30
-20.0
 70
     32
  0
VERTEX
  8
MY3DLAYER
10
-50.0573086497387
20
65.5302013620305
30
-20.0
 70
     32
  0
VERTEX
  8
MY3DLAYER
10
-48.5527680545151
20
61.8979190519009
30
-20.0
 70
     32
  0
VERTEX
  8
MY3DLAYER
10
-48.1598859703833
20
58.9136833455404
30
-20.0
 70
     32
  0
VERTEX
  8
MY3DLAYER
10
-48.1598859703833
20
58.0
30
-20.0
 70
     32
  0
VERTEX
  8
MY3DLAYER
10
34.9598859703834
20
58.0
30
-20.0
 70
     32
  0
VERTEX
  8
MY3DLAYER
10
34.9598859703834
20
58.9136833455404
30
-20.0
 70
     32
  0
VERTEX
  8
MY3DLAYER
10
35.3527680545152
20
61.8979190519009
30
-20.0
 70
     32
  0
VERTEX
  8
MY3DLAYER
10
36.8573086497388
20
65.5302013620305
30
-20.0
 70
     32
  0
VERTEX
  8
MY3DLAYER
10
39.2506871064161
20
68.6493128935839
30
-20.0
 70
     32
  0
VERTEX
  8
MY3DLAYER
10
42.3697986379694
20
71.0426913502613
30
-20.0
 70
     32
  0
VERTEX
  8
MY3DLAYER
10
46.0020809480992
20
72.5472319454849
30
-20.0
 70
     32
  0
VERTEX
  8
MY3DLAYER
10
49.9
20
73.0604027240611
30
-20.0
 70
     32
  0
VERTEX
  8
MY3DLAYER
10
53.7979190519009
20
72.5472319454849
30
-20.0
 70
     32
  0
VERTEX
  8
MY3DLAYER
10
57.4302013620305
20
71.0426913502613
30
-20.0
 70
     32
  0
VERTEX
  8
MY3DLAYER
10
60.549312893584
20
68.6493128935839
30
-20.0
 70
     32
  0
VERTEX
  8
MY3DLAYER
10
62.9426913502613
20
65.5302013620305
30
-20.0
 70
     32
  0
VERTEX
  8
MY3DLAYER
10
64.4472319454848
20
61.8979190519008
30
-20.0
 70
     32
  0
VERTEX
  8
MY3DLAYER
10
64.9604027240611
20
58.0
30
-20.0
 70
     32
  0
VERTEX
  8
MY3DLAYER
10
64.4472319454848
20
54.1020809480992
30
-20.0
 70
     32
  0
VERTEX
  8
MY3DLAYER
10
62.9426913502613
20
50.4697986379694
30
-20.0
 70
     32
  0
VERTEX
  8
MY3DLAYER
10
60.549312893584
20
47.3506871064161
30
-20.0
 70
     32
  0
VERTEX
  8
MY3DLAYER
10
57.4302013620306
20
44.9573086497388
30
-20.0
 70
     32
  0
VERTEX
  8
MY3DLAYER
10
53.7979190519009
20
43.4527680545152
30
-20.0
 70
     32
  0
VERTEX
  8
MY3DLAYER
10
50.8136833455404
20
43.0598859703833
30
-20.0
 70
     32
  0
VERTEX
  8
MY3DLAYER
10
49.9
20
43.0598859703833
30
-20.0
 70
     32
  0
VERTEX
  8
MY3DLAYER
10
49.9
20
-46.0
30
-20.0
 70
     32
  0
SEQEND
  0
POLYLINE
 8
Layer0
 66
     1
70
    8
 10
0.0
 20
 0.0
 30
0.0
  0
VERTEX
  8
MY3DLAYER
10
50.4694018992256
20
63.125036817836
30
-20.0
 70
     32
  0
VERTEX
  8
MY3DLAYER
10
49.9
20
63.2
30
-20.0
 70
     32
  0
VERTEX
  8
MY3DLAYER
10
49.3305981007745
20
63.125036817836
30
-20.0
 70
     32
  0
VERTEX
  8
MY3DLAYER
10
48.8000000000001
20
62.9052558883258
30
-20.0
 70
     32
  0
VERTEX
  8
MY3DLAYER
10
48.3443650813897
20
62.5556349186104
30
-20.0
 70
     32
  0
VERTEX
  8
MY3DLAYER
10
47.9947441116743
20
62.1
30
-20.0
 70
     32
  0
VERTEX
  8
MY3DLAYER
10
47.7749631821641
20
61.5694018992256
30
-20.0
 70
     32
  0
VERTEX
  8
MY3DLAYER
10
47.7000000000001
20
61.0
30
-20.0
 70
     32
  0
VERTEX
  8
MY3DLAYER
10
47.7749631821641
20
60.4305981007745
30
-20.0
 70
     32
  0
VERTEX
  8
MY3DLAYER
10
47.9947441116743
20
59.9
30
-20.0
 70
     32
  0
VERTEX
  8
MY3DLAYER
10
48.3443650813897
20
59.4443650813896
30
-20.0
 70
     32
  0
VERTEX
  8
MY3DLAYER
10
48.8000000000001
20
59.0947441116743
30
-20.0
 70
     32
  0
VERTEX
  8
MY3DLAYER
10
49.3305981007745
20
58.8749631821641
30
-20.0
 70
     32
  0
VERTEX
  8
MY3DLAYER
10
49.9
20
58.8
30
-20.0
 70
     32
  0
VERTEX
  8
MY3DLAYER
10
50.4694018992256
20
58.8749631821641
30
-20.0
 70
     32
  0
VERTEX
  8
MY3DLAYER
10
51.0
20
59.0947441116743
30
-20.0
 70
     32
  0
VERTEX
  8
MY3DLAYER
10
51.4556349186105
20
59.4443650813896
30
-20.0
 70
     32
  0
VERTEX
  8
MY3DLAYER
10
51.8052558883258
20
59.9
30
-20.0
 70
     32
  0
VERTEX
  8
MY3DLAYER
10
52.025036817836
20
60.4305981007745
30
-20.0
 70
     32
  0
VERTEX
  8
MY3DLAYER
10
52.1000000000001
20
61.0
30
-20.0
 70
     32
  0
VERTEX
  8
MY3DLAYER
10
52.025036817836
20
61.5694018992256
30
-20.0
 70
     32
  0
VERTEX
  8
MY3DLAYER
10
51.8052558883258
20
62.1
30
-20.0
 70
     32
  0
VERTEX
  8
MY3DLAYER
10
51.4556349186105
20
62.5556349186104
30
-20.0
 70
     32
  0
VERTEX
  8
MY3DLAYER
10
51.0
20
62.9052558883258
30
-20.0
 70
     32
  0
VERTEX
  8
MY3DLAYER
10
50.4694018992256
20
63.125036817836
30
-20.0
 70
     32
  0
SEQEND
  0
POLYLINE
 8
Layer0
 66
     1
70
    8
 10
0.0
 20
 0.0
 30
0.0
  0
VERTEX
  8
MY3DLAYER
10
-63.0999999999999
20
58.8
30
-20.0
 70
     32
  0
VERTEX
  8
MY3DLAYER
10
-62.5305981007744
20
58.8749631821641
30
-20.0
 70
     32
  0
VERTEX
  8
MY3DLAYER
10
-61.9999999999999
20
59.0947441116743
30
-20.0
 70
     32
  0
VERTEX
  8
MY3DLAYER
10
-61.5443650813896
20
59.4443650813896
30
-20.0
 70
     32
  0
VERTEX
  8
MY3DLAYER
10
-61.1947441116742
20
59.9
30
-20.0
 70
     32
  0
VERTEX
  8
MY3DLAYER
10
-60.974963182164
20
60.4305981007745
30
-20.0
 70
     32
  0
VERTEX
  8
MY3DLAYER
10
-60.9
20
61.0
30
-20.0
 70
     32
  0
VERTEX
  8
MY3DLAYER
10
-60.974963182164
20
61.5694018992256
30
-20.0
 70
     32
  0
VERTEX
  8
MY3DLAYER
10
-61.1947441116742
20
62.1
30
-20.0
 70
     32
  0
VERTEX
  8
MY3DLAYER
10
-61.5443650813896
20
62.5556349186104
30
-20.0
 70
     32
  0
VERTEX
  8
MY3DLAYER
10
-61.9999999999999
20
62.9052558883258
30
-20.0
 70
     32
  0
VERTEX
  8
MY3DLAYER
10
-62.5305981007744
20
63.125036817836
30
-20.0
 70
     32
  0
VERTEX
  8
MY3DLAYER
10
-63.0999999999999
20
63.2
30
-20.0
 70
     32
  0
VERTEX
  8
MY3DLAYER
10
-63.6694018992255
20
63.125036817836
30
-20.0
 70
     32
  0
VERTEX
  8
MY3DLAYER
10
-64.1999999999999
20
62.9052558883258
30
-20.0
 70
     32
  0
VERTEX
  8
MY3DLAYER
10
-64.6556349186103
20
62.5556349186104
30
-20.0
 70
     32
  0
VERTEX
  8
MY3DLAYER
10
-65.0052558883257
20
62.1
30
-20.0
 70
     32
  0
VERTEX
  8
MY3DLAYER
10
-65.2250368178359
20
61.5694018992256
30
-20.0
 70
     32
  0
VERTEX
  8
MY3DLAYER
10
-65.3
20
61.0
30
-20.0
 70
     32
  0
VERTEX
  8
MY3DLAYER
10
-65.2250368178359
20
60.4305981007745
30
-20.0
 70
     32
  0
VERTEX
  8
MY3DLAYER
10
-65.0052558883257
20
59.9
30
-20.0
 70
     32
  0
VERTEX
  8
MY3DLAYER
10
-64.6556349186103
20
59.4443650813896
30
-20.0
 70
     32
  0
VERTEX
  8
MY3DLAYER
10
-64.1999999999999
20
59.0947441116743
30
-20.0
 70
     32
  0
VERTEX
  8
MY3DLAYER
10
-63.6694018992255
20
58.8749631821641
30
-20.0
 70
     32
  0
VERTEX
  8
MY3DLAYER
10
-63.0999999999999
20
58.8
30
-20.0
 70
     32
  0
SEQEND
  0
POLYLINE
 8
Layer0
 66
     1
70
    8
 10
0.0
 20
 0.0
 30
0.0
  0
VERTEX
  8
MY3DLAYER
10
-8.29907484629349
20
-40.8504669029255
30
-20.0
 70
     32
  0
VERTEX
  8
MY3DLAYER
10
-7.87946784204225
20
-41.2425994870156
30
-20.0
 70
     32
  0
VERTEX
  8
MY3DLAYER
10
-7.37266721877654
20
-41.5127681931591
30
-20.0
 70
     32
  0
VERTEX
  8
MY3DLAYER
10
-6.81321060144411
20
-41.6425614705072
30
-20.0
 70
     32
  0
VERTEX
  8
MY3DLAYER
10
-6.23922403397038
20
-41.6231341217021
30
-20.0
 70
     32
  0
VERTEX
  8
MY3DLAYER
10
-5.6898237523711
20
-41.4558100884598
30
-20.0
 70
     32
  0
VERTEX
  8
MY3DLAYER
10
-5.20245047791046
20
-41.1519922271296
30
-20.0
 70
     32
  0
VERTEX
  8
MY3DLAYER
10
-4.81031789382029
20
-40.7323852228784
30
-20.0
 70
     32
  0
VERTEX
  8
MY3DLAYER
10
-4.54014918767684
20
-40.2255845996126
30
-20.0
 70
     32
  0
VERTEX
  8
MY3DLAYER
10
-4.4103559103288
20
-39.6661279822802
30
-20.0
 70
     32
  0
VERTEX
  8
MY3DLAYER
10
-4.42978325913386
20
-39.0921414148065
30
-20.0
 70
     32
  0
VERTEX
  8
MY3DLAYER
10
-4.59710729237622
20
-38.5427411332072
30
-20.0
 70
     32
  0
VERTEX
  8
MY3DLAYER
10
-4.90092515370639
20
-38.0553678587465
30
-20.0
 70
     32
  0
VERTEX
  8
MY3DLAYER
10
-5.32053215795754
20
-37.6632352746564
30
-20.0
 70
     32
  0
VERTEX
  8
MY3DLAYER
10
-5.82733278122335
20
-37.3930665685129
30
-20.0
 70
     32
  0
VERTEX
  8
MY3DLAYER
10
-6.38678939855578
20
-37.2632732911649
30
-20.0
 70
     32
  0
VERTEX
  8
MY3DLAYER
10
-6.9607759660295
20
-37.2827006399699
30
-20.0
 70
     32
  0
VERTEX
  8
MY3DLAYER
10
-7.51017624762869
20
-37.4500246732123
30
-20.0
 70
     32
  0
VERTEX
  8
MY3DLAYER
10
-7.99754952208943
20
-37.7538425345425
30
-20.0
 70
     32
  0
VERTEX
  8
MY3DLAYER
10
-8.3896821061795
20
-38.1734495387937
30
-20.0
 70
     32
  0
VERTEX
  8
MY3DLAYER
10
-8.65985081232305
20
-38.6802501620594
30
-20.0
 70
     32
  0
VERTEX
  8
MY3DLAYER
10
-8.78964408967109
20
-39.2397067793919
30
-20.0
 70
     32
  0
VERTEX
  8
MY3DLAYER
10
-8.77021674086602
20
-39.8136933468656
30
-20.0
 70
     32
  0
VERTEX
  8
MY3DLAYER
10
-8.60289270762367
20
-40.3630936284648
30
-20.0
 70
     32
  0
VERTEX
  8
MY3DLAYER
10
-8.29907484629349
20
-40.8504669029255
30
-20.0
 70
     32
  0
SEQEND
 0
ENDSEC
 0
EOF
