 0
SECTION
 2
ENTITIES
  0
POLYLINE
 8
Layer0
 66
     1
70
    8
 10
0.0
 20
 0.0
 30
0.0
  0
VERTEX
  8
MY3DLAYER
10
-51.1
20
-44.0
30
6.0
 70
     32
  0
VERTEX
  8
MY3DLAYER
10
39.935275440467
20
-44.0
30
5.99999999999998
 70
     32
  0
VERTEX
  8
MY3DLAYER
10
40.0966625628005
20
-42.2370692466236
30
5.99999999999998
 70
     32
  0
VERTEX
  8
MY3DLAYER
10
40.8188348923313
20
-40.2774873112458
30
5.99999999999998
 70
     32
  0
VERTEX
  8
MY3DLAYER
10
42.0235769217712
20
-38.5715884638634
30
5.99999999999998
 70
     32
  0
VERTEX
  8
MY3DLAYER
10
43.6287874727441
20
-37.2356268917946
30
5.99999999999998
 70
     32
  0
VERTEX
  8
MY3DLAYER
10
45.525074098937
20
-36.3606461683949
30
5.99999999999998
 70
     32
  0
VERTEX
  8
MY3DLAYER
10
47.5832080005368
20
-36.0062747839899
30
5.99999999999998
 70
     32
  0
VERTEX
  8
MY3DLAYER
10
47.9
20
-36.035275440467
30
5.99999999999998
 70
     32
  0
VERTEX
  8
MY3DLAYER
10
47.9
20
46.0342205545047
30
5.99999999999998
 70
     32
  0
VERTEX
  8
MY3DLAYER
10
50.4221047688802
20
46.0342205545048
30
5.99999999999998
 70
     32
  0
VERTEX
  8
MY3DLAYER
10
53.0147618985806
20
46.3755503410176
30
5.99999999999998
 70
     32
  0
VERTEX
  8
MY3DLAYER
10
55.7306208871842
20
47.5004959675901
30
5.99999999999999
 70
     32
  0
VERTEX
  8
MY3DLAYER
10
55.9172579211603
20
47.5778035583041
30
5.99999999999998
 70
     32
  0
VERTEX
  8
MY3DLAYER
10
58.4096877604018
20
49.4903122395982
30
5.99999999999997
 70
     32
  0
VERTEX
  8
MY3DLAYER
10
60.3221964416959
20
51.9827420788396
30
5.99999999999997
 70
     32
  0
VERTEX
  8
MY3DLAYER
10
61.5244496589824
20
54.8852381014196
30
5.99999999999997
 70
     32
  0
VERTEX
  8
MY3DLAYER
10
61.9345158423206
20
57.9999999999999
30
5.99999999999997
 70
     32
  0
VERTEX
  8
MY3DLAYER
10
61.5244496589824
20
61.1147618985806
30
5.99999999999997
 70
     32
  0
VERTEX
  8
MY3DLAYER
10
60.322196441696
20
64.0172579211603
30
5.99999999999997
 70
     32
  0
VERTEX
  8
MY3DLAYER
10
58.4096877604018
20
66.5096877604018
30
5.99999999999997
 70
     32
  0
VERTEX
  8
MY3DLAYER
10
55.9172579211602
20
68.422196441696
30
5.99999999999998
 70
     32
  0
VERTEX
  8
MY3DLAYER
10
53.0147618985806
20
69.6244496589824
30
5.99999999999998
 70
     32
  0
VERTEX
  8
MY3DLAYER
10
49.9
20
70.0345158423206
30
5.99999999999998
 70
     32
  0
VERTEX
  8
MY3DLAYER
10
46.7852381014194
20
69.6244496589824
30
5.99999999999998
 70
     32
  0
VERTEX
  8
MY3DLAYER
10
43.8827420788396
20
68.4221964416959
30
5.99999999999998
 70
     32
  0
VERTEX
  8
MY3DLAYER
10
41.3903122395982
20
66.5096877604018
30
5.99999999999998
 70
     32
  0
VERTEX
  8
MY3DLAYER
10
39.477803558304
20
64.0172579211603
30
5.99999999999998
 70
     32
  0
VERTEX
  8
MY3DLAYER
10
38.2755503410176
20
61.1147618985806
30
5.99999999999998
 70
     32
  0
VERTEX
  8
MY3DLAYER
10
37.9342205545047
20
58.5221047688802
30
5.99999999999998
 70
     32
  0
VERTEX
  8
MY3DLAYER
10
37.9342205545047
20
58.0
30
5.99999999999998
 70
     32
  0
VERTEX
  8
MY3DLAYER
10
37.9342205545047
20
56.0
30
5.99999999999998
 70
     32
  0
VERTEX
  8
MY3DLAYER
10
-51.1342205545048
20
56.0
30
6.0
 70
     32
  0
VERTEX
  8
MY3DLAYER
10
-51.1342205545048
20
58.0
30
6.0
 70
     32
  0
VERTEX
  8
MY3DLAYER
10
-51.1342205545048
20
58.5221047688802
30
6.0
 70
     32
  0
VERTEX
  8
MY3DLAYER
10
-51.4755503410176
20
61.1147618985806
30
6.0
 70
     32
  0
VERTEX
  8
MY3DLAYER
10
-52.677803558304
20
64.0172579211603
30
6.0
 70
     32
  0
VERTEX
  8
MY3DLAYER
10
-54.5903122395982
20
66.5096877604018
30
6.0
 70
     32
  0
VERTEX
  8
MY3DLAYER
10
-57.0827420788397
20
68.422196441696
30
6.0
 70
     32
  0
VERTEX
  8
MY3DLAYER
10
-59.9852381014194
20
69.6244496589824
30
6.0
 70
     32
  0
VERTEX
  8
MY3DLAYER
10
-63.1
20
70.0345158423206
30
6.0
 70
     32
  0
VERTEX
  8
MY3DLAYER
10
-66.2147618985806
20
69.6244496589824
30
6.00000000000001
 70
     32
  0
VERTEX
  8
MY3DLAYER
10
-69.1172579211603
20
68.4221964416959
30
6.00000000000001
 70
     32
  0
VERTEX
  8
MY3DLAYER
10
-71.6096877604018
20
66.5096877604018
30
6.00000000000001
 70
     32
  0
VERTEX
  8
MY3DLAYER
10
-73.5221964416959
20
64.0172579211603
30
6.00000000000001
 70
     32
  0
VERTEX
  8
MY3DLAYER
10
-74.7244496589824
20
61.1147618985805
30
6.00000000000001
 70
     32
  0
VERTEX
  8
MY3DLAYER
10
-75.1345158423206
20
58.0
30
6.00000000000001
 70
     32
  0
VERTEX
  8
MY3DLAYER
10
-74.7244496589824
20
54.8852381014194
30
6.00000000000001
 70
     32
  0
VERTEX
  8
MY3DLAYER
10
-73.5221964416959
20
51.9827420788397
30
6.00000000000001
 70
     32
  0
VERTEX
  8
MY3DLAYER
10
-71.6096877604018
20
49.4903122395982
30
6.00000000000001
 70
     32
  0
VERTEX
  8
MY3DLAYER
10
-69.1172579211603
20
47.5778035583041
30
6.00000000000001
 70
     32
  0
VERTEX
  8
MY3DLAYER
10
-68.9039124304853
20
47.4894329625953
30
6.0
 70
     32
  0
VERTEX
  8
MY3DLAYER
10
-66.2147618985806
20
46.3755503410176
30
6.00000000000001
 70
     32
  0
VERTEX
  8
MY3DLAYER
10
-63.6221047688802
20
46.0342205545048
30
6.0
 70
     32
  0
VERTEX
  8
MY3DLAYER
10
-61.1
20
46.0342205545048
30
6.0
 70
     32
  0
VERTEX
  8
MY3DLAYER
10
-61.1
20
-34.0
30
6.0
 70
     32
  0
VERTEX
  8
MY3DLAYER
10
-58.5118095489748
20
-34.3407417371093
30
6.0
 70
     32
  0
VERTEX
  8
MY3DLAYER
10
-56.1
20
-35.3397459621556
30
6.0
 70
     32
  0
VERTEX
  8
MY3DLAYER
10
-54.0289321881345
20
-36.9289321881345
30
6.0
 70
     32
  0
VERTEX
  8
MY3DLAYER
10
-52.4397459621556
20
-39.0
30
6.0
 70
     32
  0
VERTEX
  8
MY3DLAYER
10
-51.4407417371093
20
-41.4118095489748
30
6.0
 70
     32
  0
VERTEX
  8
MY3DLAYER
10
-51.1
20
-44.0
30
6.0
 70
     32
  0
SEQEND
  0
POLYLINE
 8
Layer0
 66
     1
70
    8
 10
0.0
 20
 0.0
 30
0.0
  0
VERTEX
  8
MY3DLAYER
10
41.9
20
-5.63993296509579e-015
30
6.0
 70
     32
  0
VERTEX
  8
MY3DLAYER
10
-55.1
20
-5.63993296509579e-015
30
6.0
 70
     32
  0
VERTEX
  8
MY3DLAYER
10
-55.1
20
40.0
30
6.0
 70
     32
  0
VERTEX
  8
MY3DLAYER
10
41.9
20
40.0
30
6.0
 70
     32
  0
VERTEX
  8
MY3DLAYER
10
41.9
20
-5.63993296509579e-015
30
6.0
 70
     32
  0
SEQEND
  0
POLYLINE
 8
Layer0
 66
     1
70
    8
 10
0.0
 20
 0.0
 30
0.0
  0
VERTEX
  8
MY3DLAYER
10
-4.47496318216403
20
-40.0223192800616
30
6.0
 70
     32
  0
VERTEX
  8
MY3DLAYER
10
-4.69474411167422
20
-40.552917380836
30
6.0
 70
     32
  0
VERTEX
  8
MY3DLAYER
10
-5.04436508138959
20
-41.0085522994464
30
6.0
 70
     32
  0
VERTEX
  8
MY3DLAYER
10
-5.49999999999998
20
-41.3581732691618
30
6.0
 70
     32
  0
VERTEX
  8
MY3DLAYER
10
-6.03059810077445
20
-41.577954198672
30
6.0
 70
     32
  0
VERTEX
  8
MY3DLAYER
10
-6.59999999999999
20
-41.652917380836
30
6.0
 70
     32
  0
VERTEX
  8
MY3DLAYER
10
-7.16940189922553
20
-41.577954198672
30
6.0
 70
     32
  0
VERTEX
  8
MY3DLAYER
10
-7.69999999999999
20
-41.3581732691618
30
6.0
 70
     32
  0
VERTEX
  8
MY3DLAYER
10
-8.15563491861039
20
-41.0085522994464
30
6.0
 70
     32
  0
VERTEX
  8
MY3DLAYER
10
-8.50525588832576
20
-40.552917380836
30
6.0
 70
     32
  0
VERTEX
  8
MY3DLAYER
10
-8.72503681783594
20
-40.0223192800616
30
6.0
 70
     32
  0
VERTEX
  8
MY3DLAYER
10
-8.8
20
-39.452917380836
30
6.0
 70
     32
  0
VERTEX
  8
MY3DLAYER
10
-8.72503681783594
20
-38.8835154816105
30
6.0
 70
     32
  0
VERTEX
  8
MY3DLAYER
10
-8.50525588832576
20
-38.352917380836
30
6.0
 70
     32
  0
VERTEX
  8
MY3DLAYER
10
-8.15563491861039
20
-37.8972824622256
30
6.0
 70
     32
  0
VERTEX
  8
MY3DLAYER
10
-7.7
20
-37.5476614925103
30
6.0
 70
     32
  0
VERTEX
  8
MY3DLAYER
10
-7.16940189922553
20
-37.3278805630001
30
6.0
 70
     32
  0
VERTEX
  8
MY3DLAYER
10
-6.59999999999999
20
-37.252917380836
30
6.0
 70
     32
  0
VERTEX
  8
MY3DLAYER
10
-6.03059810077445
20
-37.3278805630001
30
6.0
 70
     32
  0
VERTEX
  8
MY3DLAYER
10
-5.49999999999999
20
-37.5476614925103
30
6.0
 70
     32
  0
VERTEX
  8
MY3DLAYER
10
-5.04436508138959
20
-37.8972824622256
30
6.0
 70
     32
  0
VERTEX
  8
MY3DLAYER
10
-4.69474411167422
20
-38.352917380836
30
6.0
 70
     32
  0
VERTEX
  8
MY3DLAYER
10
-4.47496318216403
20
-38.8835154816105
30
6.0
 70
     32
  0
VERTEX
  8
MY3DLAYER
10
-4.39999999999998
20
-39.452917380836
30
6.0
 70
     32
  0
VERTEX
  8
MY3DLAYER
10
-4.47496318216403
20
-40.0223192800616
30
6.0
 70
     32
  0
SEQEND
  0
POLYLINE
 8
Layer0
 66
     1
70
    8
 10
0.0
 20
 0.0
 30
0.0
  0
VERTEX
  8
MY3DLAYER
10
9.70091535631118
20
-32.0431448029007
30
6.0
 70
     32
  0
VERTEX
  8
MY3DLAYER
10
8.29368907316905
20
-28.6458000248111
30
6.0
 70
     32
  0
VERTEX
  8
MY3DLAYER
10
7.81371039419847
20
-25.0
30
6.0
 70
     32
  0
VERTEX
  8
MY3DLAYER
10
7.81710437451154
20
-24.9742201600786
30
6.0
 70
     32
  0
VERTEX
  8
MY3DLAYER
10
8.29368907316905
20
-21.3541999751889
30
6.0
 70
     32
  0
VERTEX
  8
MY3DLAYER
10
9.70091535631118
20
-17.9568551970993
30
6.0
 70
     32
  0
VERTEX
  8
MY3DLAYER
10
11.9394890979802
20
-15.0394890979801
30
6.0
 70
     32
  0
VERTEX
  8
MY3DLAYER
10
14.8568551970993
20
-12.8009153563112
30
6.0
 70
     32
  0
VERTEX
  8
MY3DLAYER
10
18.2541999751889
20
-11.3936890731691
30
6.0
 70
     32
  0
VERTEX
  8
MY3DLAYER
10
21.9
20
-10.9137103941985
30
6.0
 70
     32
  0
VERTEX
  8
MY3DLAYER
10
25.5458000248111
20
-11.3936890731691
30
6.0
 70
     32
  0
VERTEX
  8
MY3DLAYER
10
28.9431448029008
20
-12.8009153563112
30
6.0
 70
     32
  0
VERTEX
  8
MY3DLAYER
10
31.8605109020199
20
-15.0394890979802
30
6.0
 70
     32
  0
VERTEX
  8
MY3DLAYER
10
34.0990846436888
20
-17.9568551970993
30
6.0
 70
     32
  0
VERTEX
  8
MY3DLAYER
10
35.506310926831
20
-21.3541999751889
30
6.0
 70
     32
  0
VERTEX
  8
MY3DLAYER
10
35.9828956254885
20
-24.9742201600786
30
6.0
 70
     32
  0
VERTEX
  8
MY3DLAYER
10
35.9862896058015
20
-25.0
30
6.0
 70
     32
  0
VERTEX
  8
MY3DLAYER
10
35.506310926831
20
-28.6458000248111
30
6.0
 70
     32
  0
VERTEX
  8
MY3DLAYER
10
34.0990846436888
20
-32.0431448029007
30
6.0
 70
     32
  0
VERTEX
  8
MY3DLAYER
10
31.8605109020198
20
-34.9605109020199
30
6.0
 70
     32
  0
VERTEX
  8
MY3DLAYER
10
28.9431448029007
20
-37.1990846436888
30
6.0
 70
     32
  0
VERTEX
  8
MY3DLAYER
10
25.5458000248111
20
-38.606310926831
30
6.0
 70
     32
  0
VERTEX
  8
MY3DLAYER
10
21.9
20
-39.0862896058015
30
6.0
 70
     32
  0
VERTEX
  8
MY3DLAYER
10
18.2541999751889
20
-38.606310926831
30
6.0
 70
     32
  0
VERTEX
  8
MY3DLAYER
10
14.8568551970992
20
-37.1990846436888
30
6.0
 70
     32
  0
VERTEX
  8
MY3DLAYER
10
11.9394890979801
20
-34.9605109020198
30
6.0
 70
     32
  0
VERTEX
  8
MY3DLAYER
10
9.70091535631118
20
-32.0431448029007
30
6.0
 70
     32
  0
SEQEND
  0
POLYLINE
 8
Layer0
 66
     1
70
    8
 10
0.0
 20
 0.0
 30
0.0
  0
VERTEX
  8
MY3DLAYER
10
-63.9552411314102
20
58.9730410445339
30
6.00000000000001
 70
     32
  0
VERTEX
  8
MY3DLAYER
10
-64.4507150778495
20
59.2634606890514
30
6.00000000000001
 70
     32
  0
VERTEX
  8
MY3DLAYER
10
-64.8541400238956
20
59.6722226178431
30
6.00000000000001
 70
     32
  0
VERTEX
  8
MY3DLAYER
10
-65.1380232261667
20
60.171470380973
30
6.00000000000001
 70
     32
  0
VERTEX
  8
MY3DLAYER
10
-65.2830185135671
20
60.7271810684296
30
6.00000000000001
 70
     32
  0
VERTEX
  8
MY3DLAYER
10
-65.2792446968766
20
61.3014839152181
30
6.0
 70
     32
  0
VERTEX
  8
MY3DLAYER
10
-65.126958955466
20
61.8552411314102
30
6.0
 70
     32
  0
VERTEX
  8
MY3DLAYER
10
-64.8365393109486
20
62.3507150778496
30
6.0
 70
     32
  0
VERTEX
  8
MY3DLAYER
10
-64.4277773821568
20
62.7541400238956
30
6.0
 70
     32
  0
VERTEX
  8
MY3DLAYER
10
-63.928529619027
20
63.0380232261667
30
6.0
 70
     32
  0
VERTEX
  8
MY3DLAYER
10
-63.3728189315704
20
63.1830185135671
30
6.0
 70
     32
  0
VERTEX
  8
MY3DLAYER
10
-62.7985160847819
20
63.1792446968766
30
6.0
 70
     32
  0
VERTEX
  8
MY3DLAYER
10
-62.2447588685897
20
63.0269589554661
30
6.0
 70
     32
  0
VERTEX
  8
MY3DLAYER
10
-61.7492849221504
20
62.7365393109486
30
6.0
 70
     32
  0
VERTEX
  8
MY3DLAYER
10
-61.3458599761043
20
62.3277773821569
30
6.0
 70
     32
  0
VERTEX
  8
MY3DLAYER
10
-61.0619767738333
20
61.828529619027
30
6.0
 70
     32
  0
VERTEX
  8
MY3DLAYER
10
-60.9169814864328
20
61.2728189315704
30
6.0
 70
     32
  0
VERTEX
  8
MY3DLAYER
10
-60.9207553031234
20
60.6985160847819
30
6.0
 70
     32
  0
VERTEX
  8
MY3DLAYER
10
-61.0730410445339
20
60.1447588685898
30
6.0
 70
     32
  0
VERTEX
  8
MY3DLAYER
10
-61.3634606890514
20
59.6492849221504
30
6.0
 70
     32
  0
VERTEX
  8
MY3DLAYER
10
-61.7722226178431
20
59.2458599761043
30
6.0
 70
     32
  0
VERTEX
  8
MY3DLAYER
10
-62.271470380973
20
58.9619767738333
30
6.0
 70
     32
  0
VERTEX
  8
MY3DLAYER
10
-62.8271810684296
20
58.8169814864329
30
6.0
 70
     32
  0
VERTEX
  8
MY3DLAYER
10
-63.4014839152181
20
58.8207553031234
30
6.0
 70
     32
  0
VERTEX
  8
MY3DLAYER
10
-63.9552411314102
20
58.9730410445339
30
6.00000000000001
 70
     32
  0
SEQEND
  0
POLYLINE
 8
Layer0
 66
     1
70
    8
 10
0.0
 20
 0.0
 30
0.0
  0
VERTEX
  8
MY3DLAYER
10
51.0
20
62.9052558883257
30
5.99999999999998
 70
     32
  0
VERTEX
  8
MY3DLAYER
10
51.4556349186104
20
62.5556349186104
30
5.99999999999998
 70
     32
  0
VERTEX
  8
MY3DLAYER
10
51.8052558883257
20
62.1
30
5.99999999999998
 70
     32
  0
VERTEX
  8
MY3DLAYER
10
52.0250368178359
20
61.5694018992255
30
5.99999999999998
 70
     32
  0
VERTEX
  8
MY3DLAYER
10
52.1
20
61.0
30
5.99999999999998
 70
     32
  0
VERTEX
  8
MY3DLAYER
10
52.0250368178359
20
60.4305981007745
30
5.99999999999998
 70
     32
  0
VERTEX
  8
MY3DLAYER
10
51.8052558883257
20
59.9
30
5.99999999999998
 70
     32
  0
VERTEX
  8
MY3DLAYER
10
51.4556349186104
20
59.4443650813896
30
5.99999999999998
 70
     32
  0
VERTEX
  8
MY3DLAYER
10
51.0
20
59.0947441116742
30
5.99999999999998
 70
     32
  0
VERTEX
  8
MY3DLAYER
10
50.4694018992255
20
58.874963182164
30
5.99999999999998
 70
     32
  0
VERTEX
  8
MY3DLAYER
10
49.9
20
58.8
30
5.99999999999998
 70
     32
  0
VERTEX
  8
MY3DLAYER
10
49.3305981007744
20
58.874963182164
30
5.99999999999998
 70
     32
  0
VERTEX
  8
MY3DLAYER
10
48.8
20
59.0947441116742
30
5.99999999999998
 70
     32
  0
VERTEX
  8
MY3DLAYER
10
48.3443650813896
20
59.4443650813896
30
5.99999999999998
 70
     32
  0
VERTEX
  8
MY3DLAYER
10
47.9947441116742
20
59.9
30
5.99999999999998
 70
     32
  0
VERTEX
  8
MY3DLAYER
10
47.774963182164
20
60.4305981007745
30
5.99999999999998
 70
     32
  0
VERTEX
  8
MY3DLAYER
10
47.7
20
61.0
30
5.99999999999998
 70
     32
  0
VERTEX
  8
MY3DLAYER
10
47.774963182164
20
61.5694018992255
30
5.99999999999998
 70
     32
  0
VERTEX
  8
MY3DLAYER
10
47.9947441116742
20
62.1
30
5.99999999999998
 70
     32
  0
VERTEX
  8
MY3DLAYER
10
48.3443650813896
20
62.5556349186104
30
5.99999999999998
 70
     32
  0
VERTEX
  8
MY3DLAYER
10
48.8
20
62.9052558883257
30
5.99999999999998
 70
     32
  0
VERTEX
  8
MY3DLAYER
10
49.3305981007744
20
63.1250368178359
30
5.99999999999998
 70
     32
  0
VERTEX
  8
MY3DLAYER
10
49.9
20
63.2
30
5.99999999999998
 70
     32
  0
VERTEX
  8
MY3DLAYER
10
50.4694018992255
20
63.1250368178359
30
5.99999999999998
 70
     32
  0
VERTEX
  8
MY3DLAYER
10
51.0
20
62.9052558883257
30
5.99999999999998
 70
     32
  0
SEQEND
 0
ENDSEC
 0
EOF
